<svg xmlns="http://www.w3.org/2000/svg" xmlns:xlink="http://www.w3.org/1999/xlink" xml:space="preserve" style="enable-background:new 0 0 720 720" viewBox="0 0 720 720">
  <switch>
    <g>
      <symbol id="a" viewBox="-251.7 -252 503.4 504">
        <path d="m-36.1-35.9 2.9 2.9c47.1 45.6 143.3 132.4 203 144.2 35.9 7.1 62.6-2.7 81.9-22.9-15 23.7-23.7 51.8-23.7 81.9 0 30 8.6 57.9 23.4 81.5-23.6-14.9-51.6-23.4-81.5-23.4-30.1 0-58.2 8.7-81.9 23.7 20.1-19.3 30-46 22.9-81.9-11.7-59.7-98.5-155.9-144.1-203l-2.9-3zM-251.7 252c14.5-23.8 22.8-51.7 22.8-81.5 0-29.9-8.4-57.8-22.8-81.5 23.8 14.5 51.7 22.8 81.5 22.8s57.8-8.4 81.5-22.8c-14.5 23.8-22.8 51.7-22.8 81.5s8.4 57.8 22.8 81.5c-23.8-14.5-51.7-22.8-81.5-22.8s-57.8 8.3-81.5 22.8zM-251.7-89c14.5-23.8 22.8-51.7 22.8-81.5 0-29.9-8.4-57.8-22.8-81.5 23.8 14.5 51.7 22.8 81.5 22.8s57.8-8.4 81.5-22.8c-14.5 23.8-22.8 51.7-22.8 81.5s8.4 57.8 22.8 81.5c-23.8-14.5-51.7-22.8-81.5-22.8s-57.8 8.4-81.5 22.8zM88.7-89c14.5-23.8 22.8-51.7 22.8-81.5s-8.4-57.8-22.8-81.5c23.8 14.5 51.7 22.8 81.5 22.8s57.8-8.4 81.5-22.8c-14.5 23.8-22.8 51.7-22.8 81.5s8.4 57.8 22.8 81.5c-23.8-14.5-51.7-22.8-81.5-22.8s-57.8 8.4-81.5 22.8z"/>
      </symbol>
      <use xlink:href="#a" width="503.4" height="504" x="-251.7" y="-252" style="overflow:visible" transform="matrix(1 0 0 -1 360.072 360.132)"/>
    </g>
  </switch>
</svg>
